SplineFontDB: 3.0
FontName: YawkeyWay
FullName: Yawkey Way
FamilyName: Yawkey Way
Weight: Regular
Copyright: 
Version: 2015-08-06
ItalicAngle: 0
UnderlinePosition: -113
UnderlineWidth: 20
Ascent: 800
Descent: 200
InvalidEm: 0
sfntRevision: 0x00010000
LayerCount: 2
Layer: 0 0 "Back" 1
Layer: 1 0 "Fore" 0
XUID: [1021 270 -1463357204 394131]
FSType: 4
OS2Version: 3
OS2_WeightWidthSlopeOnly: 0
OS2_UseTypoMetrics: 1
CreationTime: 1438948369
ModificationTime: 1456101225
PfmFamily: 81
TTFWeight: 400
TTFWidth: 5
LineGap: 0
VLineGap: 0
Panose: 0 0 0 0 0 0 0 0 0 0
OS2TypoAscent: 800
OS2TypoAOffset: 0
OS2TypoDescent: -200
OS2TypoDOffset: 0
OS2TypoLinegap: 0
OS2WinAscent: 802
OS2WinAOffset: 0
OS2WinDescent: 20
OS2WinDOffset: 0
HheadAscent: 800
HheadAOffset: 0
HheadDescent: -200
HheadDOffset: 0
OS2SubXSize: 700
OS2SubYSize: 650
OS2SubXOff: 0
OS2SubYOff: 140
OS2SupXSize: 700
OS2SupYSize: 650
OS2SupXOff: 0
OS2SupYOff: 477
OS2StrikeYSize: 50
OS2StrikeYPos: 250
OS2CapHeight: 0
OS2XHeight: 0
OS2Vendor: 'pyrs'
OS2CodePages: 00000001.00000000
OS2UnicodeRanges: 00000001.00000000.00000000.00000000
Lookup: 258 0 0 "'kern' Horizontal Kerning lookup 0" { "'kern' Horizontal Kerning lookup 0 subtable"  } ['kern' ('DFLT' <'dflt' > ) ]
MarkAttachClasses: 1
DEI: 91125
TtTable: prep
PUSHW_1
 0
CALL
SVTCA[y-axis]
PUSHW_3
 1
 3
 2
CALL
SVTCA[x-axis]
PUSHW_3
 4
 3
 2
CALL
SVTCA[x-axis]
PUSHW_8
 4
 32
 28
 22
 17
 10
 0
 8
CALL
PUSHW_8
 5
 43
 35
 31
 17
 10
 0
 8
CALL
PUSHW_8
 6
 35
 28
 22
 17
 10
 0
 8
CALL
SVTCA[y-axis]
PUSHW_8
 1
 33
 28
 22
 17
 10
 0
 8
CALL
PUSHW_8
 2
 54
 44
 31
 25
 15
 0
 8
CALL
PUSHW_8
 3
 36
 28
 22
 17
 10
 0
 8
CALL
SVTCA[y-axis]
PUSHW_3
 7
 2
 7
CALL
PUSHW_1
 0
DUP
RCVT
RDTG
ROUND[Black]
RTG
WCVTP
EndTTInstrs
TtTable: fpgm
PUSHW_1
 0
FDEF
MPPEM
PUSHW_1
 9
LT
IF
PUSHB_2
 1
 1
INSTCTRL
EIF
PUSHW_1
 511
SCANCTRL
PUSHW_1
 68
SCVTCI
PUSHW_2
 9
 3
SDS
SDB
ENDF
PUSHW_1
 1
FDEF
DUP
DUP
RCVT
ROUND[Black]
WCVTP
PUSHB_1
 1
ADD
ENDF
PUSHW_1
 2
FDEF
PUSHW_1
 1
LOOPCALL
POP
ENDF

StartChar: D
Encoding: 68 68 4
Width: 571
Flags: W
LayerCount: 2
Back
Fore
SplineSet
563.383789062 414 m 1
 479.383789062 328 545.383789062 233 492.383789062 98 c 0
 476.383789062 56 367.383789062 -47 254.383789062 25 c 0
 121.383789062 110 77.3837890625 41 20.3837890625 15 c 1
 50.3837890625 81 129.383789062 315 10.3837890625 412 c 1
 45.3837890625 466 125.383789062 549 45.3837890625 739 c 1
 109.383789062 756 138.383789062 700 188.383789062 717 c 0
 258.383789062 741 412.383789062 839 480.383789062 684 c 0
 553.383789062 518 483.383789062 444 563.383789062 414 c 1
324.383789062 169 m 1
 426.383789062 219 419.383789062 392 322.383789062 413 c 1
 433.383789062 427 362.383789062 638 273.383789062 612 c 0
 174.383789062 583 203.383789062 433 256.383789062 409 c 1
 153.383789062 373 211.383789062 160 324.383789062 169 c 1
EndSplineSet
EndChar

StartChar: E
Encoding: 69 69 5
Width: 612
Flags: HW
LayerCount: 2
Back
Fore
SplineSet
592 12 m 1
 553 29 463 91 406 43 c 0
 350 -5 250 -6 206 31 c 1
 179 37 149 -43 56 32 c 1
 11 26 210 206 70 434 c 1
 134 477 157 696 83 766 c 1
 150 804 236 748 257 746 c 0
 282 744 347 834 449 742 c 0
 458 734 524 738 547 800 c 1
 557 778 561 722 548 700 c 0
 535 677 557 647 567 625 c 0
 576 603 555 546 511 549 c 0
 449 553 426 633 377 631 c 0
 329 629 270 566 279 524 c 0
 302 404 408 422 422 497 c 1
 451 466 472 436 439 392 c 1
 467 367 470 323 454 296 c 1
 409 358 299 343 311 260 c 0
 330 117 453 185 490 228 c 0
 527 271 557 198 550 177 c 0
 543 155 564 59 592 12 c 1
EndSplineSet
EndChar

StartChar: F
Encoding: 70 70 6
Width: 525
Flags: W
HStem: 758 20G<454.279 488.779>
LayerCount: 2
Back
Fore
SplineSet
419.779296875 271 m 1
 374.779296875 333 238.779296875 343 249.779296875 260 c 1
 214.779296875 177 266.779296875 79 309.779296875 55 c 1
 270.779296875 4 202.779296875 0 159.779296875 24 c 1
 107.779296875 0 63.779296875 -1 21.779296875 44 c 1
 109.779296875 161 95.779296875 352 35.779296875 434 c 1
 99.779296875 477 95.779296875 672 21.779296875 742 c 1
 78.779296875 828 201.779296875 748 222.779296875 746 c 0
 247.779296875 744 283.779296875 822 414.779296875 767 c 0
 425.779296875 762 439.779296875 732 468.779296875 778 c 1
 508.779296875 758 514.779296875 687 488.779296875 661 c 1
 498.779296875 639 523.779296875 560 482.779296875 557 c 0
 420.779296875 552 341.779296875 646 295.779296875 629 c 0
 249.779296875 612 238.779296875 553 249.779296875 511 c 0
 269.779296875 436 364.779296875 410 398.779296875 499 c 1
 453.779296875 455 401.779296875 388 404.779296875 392 c 1
 432.779296875 367 435.779296875 298 419.779296875 271 c 1
EndSplineSet
EndChar

StartChar: G
Encoding: 71 71 7
Width: 661
Flags: HW
LayerCount: 2
Back
Fore
SplineSet
221.943359375 291 m 0
 222.943359375 133 375.943359375 130 383.943359375 291 c 1
 374.943359375 307 353.943359375 331 340.943359375 341 c 1
 367.943359375 357 436.943359375 354 461.943359375 326 c 1
 457.943359375 323 576.943359375 379 620.943359375 324 c 1
 574.943359375 272 525.943359375 211 580.943359375 171 c 1
 577.943359375 128 545.943359375 107 593.943359375 50 c 1
 557.943359375 18 505.943359375 -17 427.943359375 67 c 1
 277.943359375 -77 46.943359375 47 62.943359375 236 c 0
 73.943359375 363 61.943359375 375 17.943359375 393 c 1
 88.943359375 415 51.943359375 585 51.943359375 585 c 1
 61.943359375 875 510.943359375 863 533.943359375 613 c 1
 544.943359375 583 546.943359375 562 566.943359375 543 c 0
 579.943359375 530 520.943359375 480 456.943359375 529 c 1
 415.943359375 517 355.943359375 487 355.943359375 525 c 0
 356.943359375 562 380.943359375 548 386.943359375 589 c 1
 358.943359375 699 211.943359375 684 226.943359375 489 c 0
 230.943359375 442 232.943359375 400 266.943359375 395 c 1
 203.943359375 354 220.943359375 354 221.943359375 291 c 0
EndSplineSet
EndChar

StartChar: H
Encoding: 72 72 8
Width: 686
Flags: HW
LayerCount: 2
Back
Fore
SplineSet
424 583 m 1
 450 632 442 668 428 699 c 0
 388 788 493 825 538 776 c 1
 565 783 653 808 644 737 c 0
 638 688 608 661 604 590 c 1
 604 590 602 439 647 380 c 1
 565 302 637 106 680 82 c 1
 608 -11 519 -42 427 58 c 1
 479 146 478 248 442 327 c 1
 379 354 275 328 284 260 c 1
 249 177 271 74 314 50 c 1
 275 -1 237 0 194 24 c 1
 142 0 111 13 69 58 c 1
 157 175 130 352 70 434 c 1
 134 477 130 672 56 742 c 1
 113 828 146 770 167 768 c 0
 191 766 319 834 303 759 c 1
 257 742 273 553 284 511 c 0
 302 443 405 430 449 494 c 1
 452 527 453 554 424 583 c 1
EndSplineSet
EndChar

StartChar: I
Encoding: 73 73 9
Width: 312
Flags: W
VStem: 6.68066 286
LayerCount: 2
Back
Fore
SplineSet
276.680664062 752 m 1
 204.680664062 660 205.247070312 463.000976562 259.680664062 404 c 1
 177.680664062 326 249.680664062 108 292.680664062 84 c 1
 221.680664062 -9 98.6806640625 -30 6.6806640625 70 c 1
 94.6806640625 187 87.6806640625 316 27.6806640625 398 c 1
 61.6806640625 466 108.680664062 624 6.6806640625 750 c 1
 78.6806640625 802 146.680664062 824 276.680664062 752 c 1
EndSplineSet
EndChar

StartChar: L
Encoding: 76 76 12
Width: 606
Flags: HW
LayerCount: 2
Back
Fore
SplineSet
376 152 m 1
 550 212 592 190 564 78 c 1
 586 -20 507 -8 462 6 c 0
 409.136796966 22.4463298328 360 14 322 -10 c 129
 252 32 188 12 134 0 c 1
 109 -8 94 -2 44 35 c 1
 94 112 101 318 50 360 c 1
 160 520 39 746 39 746 c 1
 39 746 58 771 82 784 c 0
 106 796 144 787 168 781 c 1
 224 816 288 760 272 730 c 1
 181 610 224 440 250 398 c 1
 218 332 208 244 230 162 c 1
 268 172 332 184 376 152 c 1
EndSplineSet
EndChar

StartChar: M
Encoding: 77 77 13
Width: 810
Flags: HW
LayerCount: 2
Back
Fore
SplineSet
400 282 m 0
 481.308161658 262.124671595 499.5859375 359.275390625 552 375 c 0
 603.297372429 387.821994757 614.151613902 255.892271844 610.5 205.5 c 128
 608.833333333 182.5 604.5 159.333333333 597.5 136 c 0
 591.166666667 115.333333333 580 93.6666666667 564 71 c 0
 551.50524616 53.150351659 579.988304359 33.2551168426 592 28 c 128
 616.256818651 17.3876418402 641.669084982 21.0863562279 656 39 c 1
 679.474018326 39 700.147511265 24.2392019856 721 19.5 c 128
 753.04672335 12.2166537835 774.678482651 55.0772181939 785 74 c 1
 763.666666667 112 748 151.333333333 738 192 c 0
 730.231046804 225.665463849 724.910261427 264.739368083 729 307 c 128
 733.75441509 356.128955926 749.677807464 395.254010663 774 430 c 1
 725.275563997 471.031104002 703.863103586 589.181578767 727 675.5 c 128
 735.666666667 707.833333333 723.333007812 695.333007812 750 716 c 1
 784.320622384 782.189771741 700.307966659 804.51830526 648 788 c 1
 644 792.666666667 637.5 795.666666667 628.5 797 c 128
 606.137567064 800.312953027 585.36010155 795.656600749 569.5 788 c 128
 525.78241706 766.894959959 529.285977569 718.581312951 559 682.5 c 128
 563.666666667 676.833333333 570.333333333 671.333333333 579 666 c 1
 522.477086586 627.140497031 506.780242143 536.989183967 457 482.5 c 128
 432.333333333 455.5 412.333333333 437.333333333 397 428 c 1
 389 431.333333333 375.833333333 448.333333333 357.5 479 c 1
 335.5 522 287 639 245 668 c 1
 262 678 269 688 280 710 c 0
 324 790 202 817 176 790 c 1
 151 798 94 794 44 757 c 1
 151 675 101 474 50 432 c 1
 160 272 39 76 39 76 c 1
 39 76 59 37 83 24 c 0
 107 12 143 42 168 41 c 1
 200 0 276 43 260 73 c 1
 169 193 232 386 262 377 c 0
 302.285677105 364.914296868 336.859064578 297.434450881 400 282 c 0
EndSplineSet
EndChar

StartChar: N
Encoding: 78 78 14
Width: 542
Flags: W
LayerCount: 2
Back
Fore
SplineSet
12.3837890625 76 m 5
 12.3837890625 76 133.383789062 272 23.3837890625 432 c 5
 74.3837890625 474 124.383789062 675 17.3837890625 757 c 5
 67.3837890625 794 124.383789062 798 149.383789062 790 c 5
 175.383789062 817 297.383789062 790 253.383789062 710 c 4
 242.383789062 688 235.383789062 678 218.383789062 668 c 5
 260.383789062 639 318.383789062 485 340.383789062 442 c 5
 382.383789062 484 397.383789062 553 332.383789062 677 c 4
 287.383789062 764 397.383789062 803 443.383789062 754 c 5
 470.383789062 761 544.383789062 784 535.383789062 713 c 4
 529.383789062 664 477.383789062 667 473.383789062 596 c 5
 453.383789062 545 465.383789062 459 509.383789062 394 c 5
 428.383789062 277 470.383789062 115 518.383789062 58 c 4
 531.383789062 43 474.383789062 -22 410.383789062 27 c 5
 369.383789062 15 310.383789062 2 310.383789062 40 c 4
 311.383789062 77 357.383789062 89 348.383789062 118 c 4
 340.383789062 147 275.383789062 364 235.383789062 377 c 4
 205.383789062 386 142.383789062 193 233.383789062 73 c 5
 249.383789062 43 173.383789062 0 141.383789062 41 c 5
 116.383789062 42 80.3837890625 12 56.3837890625 24 c 4
 32.3837890625 37 12.3837890625 76 12.3837890625 76 c 5
EndSplineSet
EndChar

StartChar: O
Encoding: 79 79 15
Width: 615
Flags: W
VStem: 407.373 127<446.04 591.337>
LayerCount: 2
Back
Fore
SplineSet
597.373046875 413 m 1
 519.373046875 356 541.373046875 263 538.373046875 217 c 0
 512.373046875 -126 66.373046875 -18 88.373046875 236 c 0
 99.373046875 363 70.373046875 382 26.373046875 400 c 1
 97.373046875 422 77.373046875 585 77.373046875 585 c 1
 87.373046875 875 514.373046875 875 534.373046875 563 c 0
 535.373046875 533 522.373046875 445 597.373046875 413 c 1
409.373046875 291 m 0
 411.373046875 348 417.373046875 383 366.373046875 405 c 1
 397.373046875 424 407.373046875 434 407.373046875 489 c 0
 410.373046875 707 237.373046875 684 252.373046875 489 c 0
 256.373046875 442 263.373046875 410 297.373046875 405 c 1
 234.373046875 364 246.373046875 354 247.373046875 291 c 0
 248.373046875 133 401.373046875 130 409.373046875 291 c 0
EndSplineSet
EndChar

StartChar: P
Encoding: 80 80 16
Width: 578
Flags: HW
LayerCount: 2
Back
Fore
SplineSet
261.672851562 331 m 1
 205.672851562 233 269.672851562 46 282.672851562 33 c 1
 215.672851562 -16 163.672851562 39 163.672851562 39 c 1
 115.672851562 -2 25.6728515625 21 25.6728515625 21 c 1
 57.6728515625 71 162.672851562 294 58.6728515625 435 c 1
 125.672851562 525 141.672851562 594 85.6728515625 761 c 1
 156.672851562 780 197.672851562 737 197.672851562 737 c 1
 221.672851562 783 280.444335938 777.637695312 337.672851562 779 c 0
 505.672851562 783 477.672851562 579 551.672851562 557 c 1
 471.672851562 491 560.6484375 364.360351562 391.672851562 311 c 0
 353.672851562 299 308.672851562 294 261.672851562 331 c 1
424.620117188 541.596679688 m 0
 424.620117188 597.319335938 375.826171875 643.569335938 321.494140625 643.569335938 c 0
 264.07421875 643.569335938 213.453125 593.80078125 213.453125 544.365234375 c 0
 213.453125 489.7890625 285.211914062 433 329.672851562 433 c 0
 378.776367188 433 424.620117188 483.259765625 424.620117188 541.596679688 c 0
EndSplineSet
EndChar

StartChar: R
Encoding: 82 82 18
Width: 677
Flags: HW
LayerCount: 2
Back
Fore
SplineSet
667.791015625 126 m 1
 561.791015625 -59 469.791015625 14 469.791015625 14 c 1
 443.791015625 59 348.791015625 154 348.791015625 154 c 1
 469.791015625 283 300.791015625 322 287.791015625 294 c 1
 167.791015625 215 248.791015625 46 261.791015625 33 c 1
 194.791015625 -16 115.791015625 59 115.791015625 59 c 1
 67.791015625 18 -3.208984375 51 -3.208984375 51 c 1
 30.791015625 63 141.791015625 294 37.791015625 435 c 1
 104.791015625 525 149.791015625 596 93.791015625 763 c 1
 164.791015625 782 227.791015625 734 227.791015625 734 c 1
 287.791015625 797 384.791015625 786 384.791015625 786 c 1
 497.791015625 776 525.791015625 592 594.791015625 560 c 1
 568.791015625 530 561.791015625 508 538.791015625 512 c 1
 563.791015625 465 525.791015625 379 499.791015625 376 c 1
 544.791015625 316 548.791015625 290 533.791015625 275 c 1
 566.791015625 256 587.791015625 217 587.791015625 217 c 1
 566.791015625 133 643.791015625 120 667.791015625 126 c 1
 667.791015625 126 l 1
393.791015625 430 m 0
 431.791015625 466 430.791015625 549 393.791015625 586 c 0
 356.791015625 623 303.791015625 615 259.791015625 586 c 0
 205.791015625 551 214.791015625 473 248.791015625 433 c 0
 289.791015625 385 326.791015625 366 393.791015625 430 c 0
EndSplineSet
EndChar

StartChar: S
Encoding: 83 83 19
Width: 563
Flags: HW
LayerCount: 2
Back
Fore
SplineSet
542 286 m 0
 558 216 558 0 365 3 c 0
 229 5 184 82 161 77 c 0
 111 67 67 20 62 2 c 0
 57 -15 20 68 47 118 c 0
 74 168 78 184 53 212 c 0
 28 241 100 298 100 298 c 1
 110 263 210 118 308 155 c 0
 386 185 387 248 341 291 c 0
 295 333 252 323 240 310 c 0
 228 296 224 363 190 380 c 0
 157 397 57 481 83 581 c 0
 110 680 130 709 197 741 c 0
 285 783 360 717 399 709 c 0
 438 701 481 731 487 762 c 1
 502 750 513 728 516 689 c 0
 519 654 474 647 489 630 c 0
 558 552 490 480 490 480 c 2
 488 491 416 642 317 597 c 0
 287 584 226 390 421 447 c 1
 409 390 519 384 542 286 c 0
EndSplineSet
EndChar

StartChar: T
Encoding: 84 84 20
Width: 578
Flags: HW
LayerCount: 2
Back
Fore
SplineSet
52 797 m 1
 64 775 99 738 140 739 c 0
 191 741 224 752 272 761 c 0
 322 771 422 696 522 796 c 1
 555 752 543 692 539 669 c 1
 554 644 552 564 513 524 c 1
 485 560 408 610 370 592 c 1
 370 592 367 441 412 382 c 1
 330 304 402 108 445 84 c 1
 374 -9 251 -30 159 70 c 1
 247 187 240 294 180 376 c 1
 214 444 228 522 206 591 c 1
 171 596 101 586 67 524 c 1
 29 564 14 623 32 663 c 1
 14 717 23 753 52 797 c 1
EndSplineSet
EndChar

StartChar: U
Encoding: 85 85 21
Width: 621
Flags: HW
LayerCount: 2
Back
Fore
SplineSet
538.931640625 563 m 0
 539.931640625 533 526.931640625 445 601.931640625 413 c 1
 523.931640625 356 545.931640625 263 542.931640625 217 c 0
 516.931640625 -127 68.931640625 -19 90.931640625 236 c 0
 101.931640625 363 72.931640625 382 28.931640625 400 c 1
 99.931640625 422 79.931640625 585 79.931640625 585 c 1
 84.931640625 718 37.931640625 736 37.931640625 736 c 1
 37.931640625 736 31.931640625 790 81.931640625 788 c 1
 94.931640625 753 179.931640625 771 166.931640625 771 c 1
 198.931640625 813 292.931640625 764 277.931640625 735 c 0
 240.931640625 657 240.931640625 531 254.931640625 489 c 1
 258.931640625 442 265.931640625 410 299.931640625 405 c 1
 236.931640625 364 248.931640625 354 249.931640625 291 c 0
 250.931640625 133 403.931640625 130 411.931640625 291 c 0
 413.931640625 348 419.931640625 383 368.931640625 405 c 1
 399.931640625 424 409.931640625 434 409.931640625 489 c 0
 411.931640625 599 414.931640625 658 396.931640625 693 c 1
 390.931640625 734 358.931640625 734 358.931640625 771 c 0
 358.931640625 809 417.931640625 796 458.931640625 784 c 1
 522.931640625 832 582.931640625 766 568.931640625 753 c 0
 549.931640625 734 548.931640625 736 537.931640625 706 c 1
 541.931640625 660 528.931640625 715 538.931640625 563 c 0
EndSplineSet
EndChar

StartChar: V
Encoding: 86 86 22
Width: 794
Flags: HW
LayerCount: 2
Back
Fore
SplineSet
241 216 m 0
 199 321 182 338 119 377 c 1
 183 415 127 547 127 547 c 1
 100 677 24 705 24 705 c 1
 24 705 0 772 49 782 c 1
 70 751 136 765 123 762 c 1
 144 810 264 794 257 762 c 0
 244 700 284 436 371 397 c 1
 343 349 347 364 363 303 c 0
 403 150 450 131 494 287 c 0
 509 342 523 375 478 407 c 1
 567 420 560 514 570 682 c 0
 573 723 531 766 548 800 c 1
 548 800 612 795 650 774 c 1
 723 807 810 768 794 758 c 0
 771 744 762 689 745 662 c 1
 733 582 653 424 743 393 c 1
 654 355 635 252 621 208 c 0
 608 168 558 66 594 0 c 1
 527 -48 415 26 415 26 c 1
 336 -32 324 0 280 0 c 1
 324 58 304 58 241 216 c 0
EndSplineSet
EndChar

StartChar: W
Encoding: 87 87 23
Width: 1172
Flags: HW
LayerCount: 2
Back
Fore
SplineSet
409 433 m 1
 381 385 366 357 387 298 c 0
 422 202 426 194 461 285 c 0
 482 338 515 369 469 401 c 1
 515 408 512 461 529 491 c 1
 526 499 521 519 516 528 c 0
 469 618 541 629 618 603 c 1
 645 623 745 640 724 564 c 0
 711 516 712 521 722 484 c 0
 741 424 752 418 787 402 c 1
 759 354 763 369 779 308 c 0
 819 155 848 203 864 301 c 0
 871 344 892 389 847 421 c 1
 914 481 878 471 862 638 c 1
 852 678 821 737 832 773 c 1
 832 773 892 764 932 749 c 1
 999 793 1116 774 1101 762 c 0
 1081 745 1080 714 1067 685 c 1
 1069 603 988 434 1078 403 c 1
 989 365 1012 227 998 183 c 0
 985 143 979 71 1015 5 c 1
 948 -43 816 19 816 19 c 1
 737 -39 725 5 681 5 c 1
 725 63 705 63 642 221 c 0
 635 239 627 288 621 301 c 1
 612 276 605 222 600 206 c 0
 587 166 537 64 573 -2 c 1
 506 -50 394 24 394 24 c 1
 315 -34 324 -2 280 -2 c 1
 294 74 313 56 250 214 c 0
 208 319 230 374 167 413 c 1
 214 441 229 574 210 629 c 0
 197 666 190 706 137 759 c 1
 184 771 217 781 270 746 c 1
 306 774 366 778 409 763 c 1
 343 697 332 468 409 433 c 1
EndSplineSet
EndChar

StartChar: X
Encoding: 88 88 24
Width: 740
Flags: HW
LayerCount: 2
Back
Fore
SplineSet
724.328125 772 m 1
 599.328125 685 550.328125 607 577.328125 540 c 1
 435.328125 457 416.328125 371 568.328125 245 c 1
 552.328125 173 605.328125 114 715.328125 34 c 1
 664.328125 25 607.328125 27 564.328125 51 c 1
 514.328125 18 473.328125 5 439.328125 10 c 1
 470.328125 131 440.328125 205 350.328125 232 c 1
 261.328125 176 240.328125 98 287.328125 0 c 1
 214.328125 3 160.328125 17 122.328125 42 c 1
 61.328125 2 20.328125 -7 -37.671875 13 c 1
 96.328125 125 145.328125 199 109.328125 237 c 1
 243.328125 346 288.328125 464 130.328125 521 c 1
 162.328125 582 105.328125 674 6.328125 722 c 1
 48.328125 745 104.328125 756 164.328125 734 c 1
 192.328125 770 229.328125 785 275.328125 781 c 1
 244.328125 729 236.328125 691 249.328125 667 c 0
 271.328125 625 303.328125 601 351.328125 583 c 1
 391.328125 601 415.328125 637 435.328125 674 c 1
 435.328125 674 434.328125 748 439.328125 780 c 1
 465.328125 792 537.328125 737 537.328125 737 c 1
 587.328125 762 649.328125 774 724.328125 772 c 1
EndSplineSet
EndChar

StartChar: Y
Encoding: 89 89 25
Width: 625
Flags: HW
LayerCount: 2
Back
Fore
SplineSet
253 627 m 1
 253 587 280 476 314 470 c 1
 345 489 396 587 381 639 c 1
 437 685 437 738 428 770 c 0
 418 806 489 799 526 776 c 1
 589 778 624 692 608 683 c 0
 535 642 514 651 535 564 c 1
 480 545 397 460 415 354 c 1
 333 276 409 94 452 70 c 1
 413 20 364 -2 309 22 c 1
 255 -2 202 19 160 65 c 1
 248 182 243 272 183 354 c 1
 217 422 161 550 102 567 c 1
 95 685 18 700 18 700 c 1
 18 700 -4 749 45 762 c 1
 67 732 144 775 131 771 c 1
 150 820 254 801 248 769 c 0
 235 683 227 663 253 627 c 1
EndSplineSet
EndChar

StartChar: a
Encoding: 97 97 26
Width: 2095
Flags: HWO
HStem: 27.5 86.5<720.187 789.046> 329 65<785.439 829.858> 329 64<762.25 819.83 1300.5 1359.95> 512.5 80<1714.9 1772.44> 756 24G<281 290 1827.33 1833.33>
VStem: 330 80<545.655 624.655> 653.5 97<238.252 284.218> 1189 104<250.896 321.872>
LayerCount: 2
Back
Fore
SplineSet
1968 556 m 1
 1989.01103569 519.981081662 2036.29359443 522.942258059 2095 531 c 1xbf
 2080.37402302 511.498697366 2059.66297459 492.128604052 2034 485 c 1
 2028 456.333333333 2017.66666667 436.666666667 2003 426 c 1
 1973 481.333333333 1936.66666667 497.666666667 1894 475 c 1
 1882 423.666666667 1901.33333333 388.666666667 1952 370 c 1
 1924 345.333333333 1899.33333333 331 1878 327 c 1
 1870.01174118 292.384211763 1859.6946033 274.664096808 1831 261 c 1
 1839.66666667 348.333333333 1831.33333333 392.333333333 1806 393 c 1
 1812.81702972 447.536237719 1807.13073084 504.489356004 1762.5 512.5 c 0
 1749.5 514.833333333 1733.33333333 511.666666667 1714 503 c 1
 1704.32448948 541.702042074 1640.86008043 544.903183289 1600 532 c 1
 1607.67793701 558.104985854 1627.41356212 579.292172436 1652 591 c 1
 1650 614.333333333 1658 633 1676 647 c 1
 1682.66666667 617.666666667 1693 601 1707 597 c 0
 1731.9143317 588.206706456 1750.89770319 592.176756973 1773 602 c 1
 1781.1249895 622.312473746 1777.46113471 644.616595838 1771 664 c 1
 1759.69569094 676.919210345 1744.86164739 689.230587687 1736 704 c 1
 1740.93872398 716.346809988 1770.06797881 720.672331567 1786 722 c 1
 1795.33333333 749.333333333 1813.66666667 775.333333333 1841 800 c 1
 1825.66666667 724.666666667 1835 679.666666667 1869 665 c 1
 1843.46099519 576.364630336 1879.71171942 548.841490763 1968 556 c 1
1718 322 m 0
 1747.74819978 279.502571765 1755.90449863 221.994057061 1725 182 c 0
 1694.93128975 143.087551426 1624.66471819 124.824560958 1570.5 153.5 c 0
 1553.5 162.5 1540.33333333 176.666666667 1531 196 c 0
 1519.77337464 217.432648419 1510.94832368 235.535527461 1495 246.5 c 0
 1489.66666667 250.166666667 1484.5 252 1479.5 252 c 0
 1474.5 252 1469 251.666666667 1463 251 c 1
 1476.49218253 265.99131392 1466.40036269 291.142079951 1459 307 c 0
 1453 319 1445.66666667 331 1437 343 c 0
 1415.14721479 381.849395936 1415.66683279 421.755810283 1438 456 c 0
 1465.22412103 497.743652244 1527.66307806 524.294034569 1587.5 497 c 0
 1612.7045442 485.503190364 1631.3439115 462.863573939 1648 435.5 c 0
 1656.31118046 421.84591783 1668.5507635 406.002156422 1683 399.5 c 0
 1689.66666667 396.5 1696.66666667 397.666666667 1704 403 c 1
 1691.00134962 371.43184911 1704.34310921 341.50984397 1718 322 c 0
1325 387 m 0
 1342.31594805 388.154396537 1362.50520098 405.937588296 1361 424 c 1
 1373.13254558 418.800337613 1378.68096562 406.893296267 1384 392 c 0
 1388.0596158 379.82115258 1379.68967641 374.06902919 1377 366 c 0
 1376.33333333 364 1377 362 1379 360 c 0
 1396.41351464 348.732431703 1405 335.884596282 1405 313 c 0
 1404.33333333 305 1402.33333333 296.666666667 1399 288 c 1
 1394.23890364 297.522192665 1375.15305321 312.830180074 1364 320 c 0
 1344.61476238 332.461938475 1320.73508899 338.847259797 1300 322 c 0
 1290.12615794 314.100926342 1291.58408699 282.652106953 1297.5 269 c 0
 1301.83333333 259 1309.5 252.166666667 1320.5 248.5 c 0
 1331.5 244.833333333 1348 249.666666667 1370 263 c 1
 1372.97025014 246.663624179 1390.62940427 239.632582642 1405 233 c 0
 1421.76715066 225.261315084 1440.89102142 217.217957158 1449 201 c 256
 1458.02381297 182.952374056 1468.3698264 147.622830112 1466 118 c 0
 1462.70173082 76.7716351335 1439.70703074 51.2103793337 1400 41 c 0
 1363.85965939 32.3263182552 1329.43857806 37.370622091 1304 48.5 c 0
 1282.70623332 57.8160229299 1262.51417064 27.1368436287 1256.5 11.5 c 0
 1254.83333333 7.16666666667 1254 3.66666666667 1254 1 c 0
 1254 -1 1252.5 -0.666666666667 1249.5 2 c 0
 1238.88282114 11.4374923238 1227.03432793 34.188803585 1231 56 c 0
 1237.27756658 81.1102663592 1239.20019279 90.5332048045 1222 102 c 0
 1206.68367558 112.210882946 1228.05498545 140.825604985 1234 149 c 1
 1240.65941518 135.681169632 1265.74812013 119.100966787 1281.5 111 c 0
 1302.92311941 99.9823957346 1330.60341473 91.6023476286 1353 107 c 0
 1384.13110552 129.749654035 1382.84298703 160.320340128 1351 177 c 0
 1337.66666667 184.333333333 1326.33333333 186.5 1317 183.5 c 0
 1307.66666667 180.5 1302 177 1300 173 c 0
 1297.05355159 168.580327374 1291.00340104 179.745323572 1289 182.5 c 0
 1283.8805175 189.539288423 1276.39722384 198.315078905 1267 201 c 0
 1239.1564536 204.977649485 1212.08025893 228.772236365 1198.5 249.5 c 0
 1192.16666667 259.166666667 1189 270.666666667 1189 284 c 0
 1189 331.439445658 1197.1027901 354.811373711 1223 376 c 0
 1243.51619023 393.585305915 1272.96764157 396.57225183 1305.5 389.5 c 0
 1313.16666667 387.833333333 1319.66666667 387 1325 387 c 0
898.5 370 m 0
 918.122974352 351.01002482 918.313697295 298.008952177 909.5 267.5 c 0
 905.166666667 252.5 901.166666667 239.833333333 897.5 229.5 c 0
 889.88183894 208.030637016 887.116180948 196.560167464 903 182 c 1
 863.670573996 165.144531713 855.349653847 127.554786325 838 89 c 0
 821.494713205 52.3215849009 778.601125208 12.45224664 720 32.5 c 0
 707.333333333 36.8333333333 696 46 686 60 c 0
 666.219469451 87.925454893 643.221214921 112.493091581 599.5 102 c 0
 591.166666667 100 583 99 575 99 c 1
 607.481332065 128.233198857 643.488385618 178.211487808 653.5 231 c 0
 657.166666667 250.333333333 654.333333333 268.333333333 645 285 c 1
 662.154572793 297.008200955 681.142435744 307.523247658 695 326 c 0
 713.680319661 350.907092882 724.208854332 382.85468106 723 430 c 1
 745.90712799 426.182145336 754.857395102 410.78550408 769 399 c 0
 773 395.666666667 778.333333333 393.666666667 785 393 c 0xbf
 808.974459232 393 840.037592917 395.478635873 862.5 390 c 0
 876.166666667 386.666666667 888.166666667 380 898.5 370 c 0
572.5 495 m 0
 608.790473926 495 627.051376599 473.119264172 635 440 c 0
 635 429.944704213 659.009863815 425.900493191 671 426.5 c 0
 677.666666667 426.833333333 684.666666667 429.333333333 692 434 c 1
 688.817356132 421.269424535 679.004558194 409.672237793 671.5 400.5 c 0
 664.150359956 391.517106612 654.423050448 391.326777466 652 378 c 0
 647.971385432 355.842619869 642.33776517 338 616.5 338 c 0
 578.019657543 338 595.241631167 400.113120598 573 416 c 0
 551.051083899 429.718072562 509.895548721 419.422947018 502 401 c 0
 487.675599649 370.918759264 495.245426265 335.3396341 528.5 338 c 0
 536.833333333 338.666666667 544.666666667 342.333333333 552 349 c 1
 555.320279025 320.777628282 551.535414821 308.060624447 528 301 c 1
 532.273066569 281.05902268 518.039816541 263.927189337 505 258 c 1
 505 282.660504076 483.650989611 308.912747403 456 302 c 0
 438.50710066 297.626775165 423.550920687 262.397135641 428.5 247 c 0
 436.283210431 222.785567549 467.832191536 213.151307553 500 219 c 0
 512.389265098 222.716779529 519 215.42213073 519 205 c 0
 519 187.084159603 508.147273585 181.650365097 501 169.5 c 0
 490.816699897 152.188389822 480.459247336 126.592473344 478 102 c 1
 466.259487388 122.545897069 455.810175688 148.707017366 436.5 162.5 c 0
 422.140679864 172.75665724 402.630166691 166.511732135 384 172.5 c 0
 359.027248254 180.526955919 334.398569581 198.338101395 327 223 c 0
 322.712606899 228.716524136 308.026369842 225.994140036 299 228 c 0
 280.743564049 232.056985766 273.036005168 245.867981049 267 268 c 1
 263.666666667 270 264.166666667 272.166666667 268.5 274.5 c 0
 296.609949352 289.636126573 326.963633413 304.509674277 349.5 328.5 c 0
 371.202765091 351.602943484 387.163152233 383.794674558 391 426 c 1
 417.593199767 426 445.729420067 454.096266748 460.5 472 c 0
 476.590534548 491.50367824 499.119422759 524.576989192 494 557 c 1
 521.863781623 553.019459769 538.760986849 530.230223675 550 510 c 0
 556.282271072 498.691912069 556.658564234 495 572.5 495 c 0
286 756 m 1
 306.909265233 743.802928613 316.212925257 722.885940725 323 698 c 1
 357.898667442 700.052862792 379.620695751 678.379304249 397 661 c 0
 423.844294372 630.32080643 401.897276019 574.171912792 392.5 540 c 0
 388.833333333 526.666666667 388.666666667 515.666666667 392 507 c 1
 375.65239908 505.910159938 362.198168243 498.482930811 355 510 c 1
 348.963979097 491.891937292 326.347591162 476.891265194 306 473.5 c 0
 300 472.5 295.666666667 473 293 475 c 1
 289.668343943 451.6784076 286.327860481 428 269 428 c 1
 273.02680213 414.912893078 271.896730654 399.690191965 268 388 c 1
 243.797596706 374.170055261 240.748371823 344.438721131 264 327 c 1
 213.611458337 312.787847224 161.924536703 315.735804251 154 358 c 1
 159.802182343 384.109820551 161 418.626975482 161 450 c 1
 193.577905171 450.987209248 216.471063383 461.270075088 213.5 489 c 0
 212.388438377 499.37457515 199.728991632 526.291596652 189 522 c 1
 138.969053498 531.621335865 106.213920652 491.635961683 93 457.5 c 0
 89 447.166666667 87 440.666666667 87 438 c 1
 57.2002637462 441.724967031 48.6918220495 469.465423603 45 499 c 1
 19.846120849 501.096156597 7.6883276823 519.779180793 0 539 c 1
 4 537 13.5 538.166666667 28.5 542.5 c 0
 64.8418296825 552.998750796 99.2340449589 575.912422279 123.5 603 c 0
 137.833333333 619 146.666666667 638 150 660 c 1
 198.062721097 666.866103014 230.013013732 678.181849354 256 708.5 c 0
 266 720.166666667 276 736 286 756 c 1
746 114 m 1
 784.80888357 115.848042076 814.457566181 155.105523505 808.5 198 c 0
 806.833333333 210 801 219.666666667 791 227 c 1
 845.143543134 213.464114218 851.411091232 323.539871621 805 329 c 0xdf
 768.684425889 332.822692011 749.391078371 297.485492176 750.5 262 c 0
 750.833333333 251.333333333 753.666666667 243.333333333 759 238 c 1
 716.021546912 240.148922656 702.951693482 179.061285455 718 140.5 c 0
 723.333333333 126.833333333 732.666666667 118 746 114 c 1
330 587 m 0
 330 627.500660286 271.10913526 652.843022247 242.5 622.5 c 0
 225.140671316 604.088590789 215.441169191 571.202625702 231 547 c 0
 237 537.666666667 251.666666667 532.666666667 275 532 c 0
 299.360251093 532 316.576164716 550.15232943 325 567 c 0
 328.333333333 573.666666667 330 580.333333333 330 587 c 0
1670.5 259 m 0
 1673.4786742 282.829393556 1649.47236365 318.755999982 1637 334 c 0
 1631 341.333333333 1621 343.333333333 1607 340 c 1
 1616.7049708 361.027436725 1613.86941957 367.110897013 1601 387 c 0
 1585.66666667 409.666666667 1570.83333333 423.833333333 1556.5 429.5 c 0
 1525.38609069 441.800847869 1509.67932422 424.023920611 1511.5 395.5 c 0
 1512.89534131 373.639652768 1537.04241793 335.472428336 1557 322.5 c 0
 1563.66666667 318.166666667 1571 317.666666667 1579 321 c 1
 1571.36900188 304.466170744 1565.9980578 290.335922938 1577.5 275 c 0
 1580.5 271 1584.33333333 265.666666667 1589 259 c 0
 1600.33333333 242.333333333 1612.33333333 232.166666667 1625 228.5 c 0
 1653.09095095 220.368408938 1667.53207017 235.25656137 1670.5 259 c 0
EndSplineSet
EndChar

StartChar: C
Encoding: 67 67 27
Width: 575
Flags: HW
LayerCount: 2
Back
Fore
SplineSet
204.5703125 523 m 0
 208.5703125 476 222.5703125 431 256.5703125 425 c 1
 192.5703125 384 202.5703125 354 203.5703125 291 c 0
 204.5703125 133 369.5703125 82 377.5703125 243 c 1
 399.5703125 296 485.5703125 237 484.5703125 214 c 0
 484.5703125 191 533.5703125 107 575.5703125 70 c 1
 533.5703125 75 439.5703125 96 400.5703125 33 c 1
 263.5703125 -58 15.5703125 45 31.5703125 231 c 0
 42.5703125 358 25.5703125 384 -17.4296875 419 c 1
 53.5703125 441 33.5703125 585 33.5703125 585 c 1
 40.5703125 776 227.5703125 840 359.5703125 774 c 1
 405.5703125 769 403.5703125 771 472.5703125 788 c 1
 484.5703125 739 498.5703125 710 452.5703125 673 c 1
 450.5703125 614 492.5703125 557 435.5703125 574 c 1
 386.5703125 600 339.5703125 622 311.5703125 637 c 0
 263.5703125 666 194.5703125 645 204.5703125 523 c 0
EndSplineSet
EndChar

StartChar: A
Encoding: 65 65 28
Width: 645
Flags: HW
LayerCount: 2
Back
Fore
SplineSet
452.537109375 430 m 1
 398.537109375 322 497.537109375 101 607.537109375 21 c 1
 556.537109375 13 503.537109375 16 459.537109375 40 c 1
 410.537109375 7 377.537109375 5 343.537109375 10 c 1
 374.537109375 131 324.537109375 257 234.537109375 285 c 1
 145.537109375 229 119.537109375 110 166.537109375 12 c 1
 94.537109375 0 65.537109375 -14 17.537109375 23 c 1
 -43.462890625 0 -74.462890625 -14 -100.462890625 25 c 1
 -12.462890625 97 63.537109375 316 2.537109375 427 c 1
 81.537109375 474 106.537109375 611 102.537109375 705 c 0
 100.537109375 743 36.537109375 790 89.537109375 790 c 1
 131.537109375 813 171.537109375 792 231.537109375 771 c 1
 266.537109375 800 273.537109375 788 339.537109375 800 c 1
 365.537109375 790 369.537109375 764 327.537109375 716 c 1
 301.537109375 618 395.537109375 478 452.537109375 430 c 1
 452.537109375 430 l 1
218.537109375 567 m 1
 175.537109375 505 107.537109375 386 242.537109375 386 c 1
 341.537109375 399 289.537109375 524 218.537109375 567 c 1
EndSplineSet
EndChar

StartChar: B
Encoding: 66 66 29
Width: 595
Flags: HW
LayerCount: 2
Back
Fore
SplineSet
588 251 m 1
 513 201 604 165 521 80 c 0
 467 23 419 -4 354 2 c 0
 258 10 219 38 219 38 c 1
 85 -65 39 76 15 72 c 1
 85 125 91 335 19 370 c 1
 101 472 55 643 50 668 c 0
 46 692 21 715 19 730 c 1
 49 746 117 724 128 735 c 0
 152 759 255 824 361 769 c 0
 442 727 461 665 459 625 c 0
 455 564 511 555 511 555 c 1
 490 533 473 525 479 505 c 0
 484 488 471 429 423 392 c 1
 451 384 478 383 512 359 c 0
 550 332 523 265 588 251 c 1
 588 251 l 1
306 549 m 1
 362 623 312 670 223 652 c 1
 161 629 151 594 178 518 c 1
 182 472 218 454 278 462 c 1
 345 483 330 541 306 549 c 1
 306 549 l 1
352 266 m 1
 379 328 354 369 252 363 c 1
 204 341 175 326 190 236 c 1
 193 172 236 156 325 162 c 1
 379 179 409 240 352 266 c 1
EndSplineSet
EndChar
